<mxfile host="app.diagrams.net" modified="2023-06-30T18:16:46.893Z" agent="Mozilla/5.0 (X11; Ubuntu; Linux x86_64; rv:109.0) Gecko/20100101 Firefox/113.0" etag="Q4T0WYMQS93Dz1gujGoN" version="21.5.1" type="device">
  <diagram name="Page-1" id="iIZvZDCjb6QR07JQ2eQ-">
    <mxGraphModel dx="1434" dy="822" grid="1" gridSize="10" guides="1" tooltips="1" connect="1" arrows="1" fold="1" page="1" pageScale="1" pageWidth="850" pageHeight="1100" math="1" shadow="0">
      <root>
        <mxCell id="0" />
        <mxCell id="1" parent="0" />
        <mxCell id="LYWgQ0stpBJn-340o0n--1" value="" style="endArrow=none;html=1;rounded=0;strokeWidth=2;strokeColor=#4D4D4D;" parent="1" edge="1">
          <mxGeometry width="50" height="50" relative="1" as="geometry">
            <mxPoint x="234.99740061681814" y="245.00400877610673" as="sourcePoint" />
            <mxPoint x="560" y="287" as="targetPoint" />
          </mxGeometry>
        </mxCell>
        <mxCell id="LYWgQ0stpBJn-340o0n--2" value="" style="endArrow=none;html=1;rounded=0;strokeWidth=3;strokeColor=#990000;" parent="1" edge="1">
          <mxGeometry width="50" height="50" relative="1" as="geometry">
            <mxPoint x="234" y="243.5" as="sourcePoint" />
            <mxPoint x="325" y="256.5" as="targetPoint" />
          </mxGeometry>
        </mxCell>
        <mxCell id="LYWgQ0stpBJn-340o0n--3" value="" style="endArrow=none;html=1;rounded=0;strokeWidth=3;" parent="1" edge="1">
          <mxGeometry width="50" height="50" relative="1" as="geometry">
            <mxPoint x="419.5" y="246.5" as="sourcePoint" />
            <mxPoint x="350" y="260" as="targetPoint" />
          </mxGeometry>
        </mxCell>
        <mxCell id="LYWgQ0stpBJn-340o0n--4" value="" style="endArrow=none;html=1;rounded=0;strokeWidth=3;" parent="1" edge="1">
          <mxGeometry width="50" height="50" relative="1" as="geometry">
            <mxPoint x="540" y="380" as="sourcePoint" />
            <mxPoint x="349.5" y="259.5" as="targetPoint" />
          </mxGeometry>
        </mxCell>
        <mxCell id="LYWgQ0stpBJn-340o0n--5" value="&lt;font&gt;&lt;b&gt;r&lt;/b&gt;&lt;/font&gt;" style="text;html=1;strokeColor=none;fillColor=none;align=center;verticalAlign=middle;whiteSpace=wrap;rounded=0;fontSize=16;fontColor=#990000;" parent="1" vertex="1">
          <mxGeometry x="246" y="224.5" width="60" height="30" as="geometry" />
        </mxCell>
        <mxCell id="LYWgQ0stpBJn-340o0n--6" value="&lt;font size=&quot;1&quot; color=&quot;#4d4d4d&quot;&gt;&lt;span style=&quot;font-size: 14px;&quot;&gt;bisector&lt;/span&gt;&lt;/font&gt;" style="text;html=1;strokeColor=none;fillColor=none;align=center;verticalAlign=middle;whiteSpace=wrap;rounded=0;fontSize=16;" parent="1" vertex="1">
          <mxGeometry x="510" y="254.5" width="80" height="30" as="geometry" />
        </mxCell>
        <mxCell id="LYWgQ0stpBJn-340o0n--7" value="&lt;b&gt;$$A$$&lt;/b&gt;" style="text;html=1;strokeColor=none;fillColor=none;align=center;verticalAlign=middle;whiteSpace=wrap;rounded=0;fontSize=16;" parent="1" vertex="1">
          <mxGeometry x="520" y="380" width="60" height="30" as="geometry" />
        </mxCell>
        <mxCell id="LYWgQ0stpBJn-340o0n--8" value="&lt;b&gt;$$B$$&lt;/b&gt;" style="text;html=1;strokeColor=none;fillColor=none;align=center;verticalAlign=middle;whiteSpace=wrap;rounded=0;fontSize=16;" parent="1" vertex="1">
          <mxGeometry x="313.5" y="236" width="60" height="30" as="geometry" />
        </mxCell>
        <mxCell id="LYWgQ0stpBJn-340o0n--10" value="&lt;br&gt;&lt;div&gt;&lt;b&gt;$$C=I_3$$&lt;/b&gt;&lt;/div&gt;&lt;div&gt;&lt;b&gt;&lt;br&gt;&lt;/b&gt;&lt;/div&gt;" style="text;html=1;strokeColor=none;fillColor=none;align=center;verticalAlign=middle;whiteSpace=wrap;rounded=0;fontSize=16;" parent="1" vertex="1">
          <mxGeometry x="422" y="240" width="60" height="30" as="geometry" />
        </mxCell>
        <mxCell id="LYWgQ0stpBJn-340o0n--11" value="&lt;br&gt;&lt;div&gt;&lt;b&gt;$$I_1$$&lt;/b&gt;&lt;/div&gt;&lt;div&gt;&lt;b&gt;&lt;br&gt;&lt;/b&gt;&lt;/div&gt;" style="text;html=1;strokeColor=none;fillColor=none;align=center;verticalAlign=middle;whiteSpace=wrap;rounded=0;fontSize=16;" parent="1" vertex="1">
          <mxGeometry x="390.5" y="274" width="60" height="30" as="geometry" />
        </mxCell>
        <mxCell id="LYWgQ0stpBJn-340o0n--12" value="" style="ellipse;whiteSpace=wrap;html=1;aspect=fixed;fillColor=none;strokeWidth=3;strokeColor=#006600;" parent="1" vertex="1">
          <mxGeometry x="269" y="284" width="180" height="180" as="geometry" />
        </mxCell>
        <mxCell id="LYWgQ0stpBJn-340o0n--13" value="" style="ellipse;whiteSpace=wrap;html=1;aspect=fixed;fillColor=none;strokeWidth=3;strokeColor=#006600;" parent="1" vertex="1">
          <mxGeometry x="305" y="68" width="180" height="180" as="geometry" />
        </mxCell>
        <mxCell id="LYWgQ0stpBJn-340o0n--14" value="" style="ellipse;whiteSpace=wrap;html=1;aspect=fixed;" parent="1" vertex="1">
          <mxGeometry x="233.5" y="243" width="3" height="3" as="geometry" />
        </mxCell>
        <mxCell id="LYWgQ0stpBJn-340o0n--15" value="" style="ellipse;whiteSpace=wrap;html=1;aspect=fixed;fillColor=none;strokeWidth=3;strokeColor=#006600;" parent="1" vertex="1">
          <mxGeometry x="145" y="150.5" width="180" height="180" as="geometry" />
        </mxCell>
        <mxCell id="LYWgQ0stpBJn-340o0n--16" value="" style="endArrow=none;html=1;rounded=0;strokeWidth=3;strokeColor=#990000;" parent="1" edge="1">
          <mxGeometry width="50" height="50" relative="1" as="geometry">
            <mxPoint x="409" y="297" as="sourcePoint" />
            <mxPoint x="363" y="366" as="targetPoint" />
          </mxGeometry>
        </mxCell>
        <mxCell id="LYWgQ0stpBJn-340o0n--17" value="" style="ellipse;whiteSpace=wrap;html=1;aspect=fixed;" parent="1" vertex="1">
          <mxGeometry x="314.5" y="198.5" width="3" height="3" as="geometry" />
        </mxCell>
        <mxCell id="LYWgQ0stpBJn-340o0n--18" value="" style="endArrow=none;html=1;rounded=0;strokeWidth=3;strokeColor=#990000;" parent="1" edge="1">
          <mxGeometry width="50" height="50" relative="1" as="geometry">
            <mxPoint x="397" y="169" as="sourcePoint" />
            <mxPoint x="417" y="247" as="targetPoint" />
          </mxGeometry>
        </mxCell>
        <mxCell id="LYWgQ0stpBJn-340o0n--19" value="" style="ellipse;whiteSpace=wrap;html=1;aspect=fixed;" parent="1" vertex="1">
          <mxGeometry x="395.5" y="167.5" width="3" height="3" as="geometry" />
        </mxCell>
        <mxCell id="LYWgQ0stpBJn-340o0n--20" value="" style="endArrow=none;html=1;rounded=0;strokeWidth=1;strokeColor=#990000;" parent="1" edge="1">
          <mxGeometry width="50" height="50" relative="1" as="geometry">
            <mxPoint x="395" y="234" as="sourcePoint" />
            <mxPoint x="414" y="229" as="targetPoint" />
          </mxGeometry>
        </mxCell>
        <mxCell id="LYWgQ0stpBJn-340o0n--21" value="" style="endArrow=none;html=1;rounded=0;strokeWidth=1;strokeColor=#990000;" parent="1" edge="1">
          <mxGeometry width="50" height="50" relative="1" as="geometry">
            <mxPoint x="396" y="234" as="sourcePoint" />
            <mxPoint x="400" y="249" as="targetPoint" />
          </mxGeometry>
        </mxCell>
        <mxCell id="LYWgQ0stpBJn-340o0n--22" value="" style="ellipse;whiteSpace=wrap;html=1;aspect=fixed;" parent="1" vertex="1">
          <mxGeometry x="360.5" y="365.5" width="3" height="3" as="geometry" />
        </mxCell>
        <mxCell id="LYWgQ0stpBJn-340o0n--23" value="" style="endArrow=none;html=1;rounded=0;strokeWidth=1;strokeColor=#990000;" parent="1" edge="1">
          <mxGeometry width="50" height="50" relative="1" as="geometry">
            <mxPoint x="400" y="311" as="sourcePoint" />
            <mxPoint x="415" y="321" as="targetPoint" />
          </mxGeometry>
        </mxCell>
        <mxCell id="LYWgQ0stpBJn-340o0n--24" value="" style="endArrow=none;html=1;rounded=0;strokeWidth=1;strokeColor=#990000;" parent="1" edge="1">
          <mxGeometry width="50" height="50" relative="1" as="geometry">
            <mxPoint x="415" y="321" as="sourcePoint" />
            <mxPoint x="424" y="307" as="targetPoint" />
          </mxGeometry>
        </mxCell>
        <mxCell id="LYWgQ0stpBJn-340o0n--25" value="&lt;br&gt;&lt;div&gt;&lt;b&gt;$$O_1$$&lt;/b&gt;&lt;/div&gt;&lt;div&gt;&lt;b&gt;&lt;br&gt;&lt;/b&gt;&lt;/div&gt;" style="text;html=1;strokeColor=none;fillColor=none;align=center;verticalAlign=middle;whiteSpace=wrap;rounded=0;fontSize=16;" parent="1" vertex="1">
          <mxGeometry x="329" y="368.5" width="60" height="30" as="geometry" />
        </mxCell>
        <mxCell id="LYWgQ0stpBJn-340o0n--26" value="&lt;br&gt;&lt;div&gt;&lt;b&gt;$$O_2$$&lt;/b&gt;&lt;/div&gt;&lt;div&gt;&lt;b&gt;&lt;br&gt;&lt;/b&gt;&lt;/div&gt;" style="text;html=1;strokeColor=none;fillColor=none;align=center;verticalAlign=middle;whiteSpace=wrap;rounded=0;fontSize=16;" parent="1" vertex="1">
          <mxGeometry x="190" y="216.5" width="60" height="30" as="geometry" />
        </mxCell>
        <mxCell id="LYWgQ0stpBJn-340o0n--27" value="&lt;br&gt;&lt;div&gt;&lt;b&gt;$$O_3$$&lt;/b&gt;&lt;/div&gt;&lt;div&gt;&lt;b&gt;&lt;br&gt;&lt;/b&gt;&lt;/div&gt;" style="text;html=1;strokeColor=none;fillColor=none;align=center;verticalAlign=middle;whiteSpace=wrap;rounded=0;fontSize=16;" parent="1" vertex="1">
          <mxGeometry x="365" y="137.5" width="60" height="30" as="geometry" />
        </mxCell>
        <mxCell id="LYWgQ0stpBJn-340o0n--28" value="" style="ellipse;whiteSpace=wrap;html=1;aspect=fixed;" parent="1" vertex="1">
          <mxGeometry x="407.5" y="296.5" width="3" height="3" as="geometry" />
        </mxCell>
        <mxCell id="LYWgQ0stpBJn-340o0n--29" value="" style="ellipse;whiteSpace=wrap;html=1;aspect=fixed;" parent="1" vertex="1">
          <mxGeometry x="296" y="305" width="3" height="3" as="geometry" />
        </mxCell>
        <mxCell id="LYWgQ0stpBJn-340o0n--30" value="" style="ellipse;whiteSpace=wrap;html=1;aspect=fixed;" parent="1" vertex="1">
          <mxGeometry x="416.5" y="246.5" width="3" height="3" as="geometry" />
        </mxCell>
        <mxCell id="LYWgQ0stpBJn-340o0n--31" value="&lt;br&gt;&lt;div&gt;&lt;b&gt;$$I_{12}$$&lt;/b&gt;&lt;/div&gt;&lt;div&gt;&lt;b&gt;&lt;br&gt;&lt;/b&gt;&lt;/div&gt;" style="text;html=1;strokeColor=none;fillColor=none;align=center;verticalAlign=middle;whiteSpace=wrap;rounded=0;fontSize=16;" parent="1" vertex="1">
          <mxGeometry x="250" y="284" width="60" height="30" as="geometry" />
        </mxCell>
        <mxCell id="LYWgQ0stpBJn-340o0n--32" value="&lt;br&gt;&lt;div&gt;&lt;b&gt;$$I_{23}$$&lt;/b&gt;&lt;/div&gt;&lt;div&gt;&lt;b&gt;&lt;br&gt;&lt;/b&gt;&lt;/div&gt;" style="text;html=1;strokeColor=none;fillColor=none;align=center;verticalAlign=middle;whiteSpace=wrap;rounded=0;fontSize=16;" parent="1" vertex="1">
          <mxGeometry x="296" y="171.5" width="60" height="30" as="geometry" />
        </mxCell>
        <mxCell id="LYWgQ0stpBJn-340o0n--33" value="&lt;font&gt;&lt;b&gt;r&lt;/b&gt;&lt;/font&gt;" style="text;html=1;strokeColor=none;fillColor=none;align=center;verticalAlign=middle;whiteSpace=wrap;rounded=0;fontSize=16;fontColor=#990000;" parent="1" vertex="1">
          <mxGeometry x="388" y="180" width="60" height="30" as="geometry" />
        </mxCell>
        <mxCell id="LYWgQ0stpBJn-340o0n--34" value="&lt;font&gt;&lt;b&gt;r&lt;/b&gt;&lt;/font&gt;" style="text;html=1;strokeColor=none;fillColor=none;align=center;verticalAlign=middle;whiteSpace=wrap;rounded=0;fontSize=16;fontColor=#990000;" parent="1" vertex="1">
          <mxGeometry x="344" y="314" width="60" height="30" as="geometry" />
        </mxCell>
        <mxCell id="08bp-aijEePuOHKmuNUY-1" value="&lt;font style=&quot;font-size: 15px;&quot; color=&quot;#4d4d4d&quot;&gt;$$y=a_bx+b_b$$&lt;/font&gt;" style="text;html=1;strokeColor=none;fillColor=none;align=center;verticalAlign=middle;whiteSpace=wrap;rounded=0;fontSize=15;" vertex="1" parent="1">
          <mxGeometry x="520" y="291.5" width="80" height="30" as="geometry" />
        </mxCell>
      </root>
    </mxGraphModel>
  </diagram>
</mxfile>
